<?xml version="1.0" encoding="UTF-8"?>
<svg width="128px" height="128px" viewBox="0 0 128 128" version="1.1" xmlns="http://www.w3.org/2000/svg" xmlns:xlink="http://www.w3.org/1999/xlink">
    <!-- Generator: Sketch 51.1 (57501) - http://www.bohemiancoding.com/sketch -->
    <title>Icon v1.2</title>
    <desc>Created with Sketch.</desc>
    <defs>
        <radialGradient cx="32.462788%" cy="0%" fx="32.462788%" fy="0%" r="135.392224%" id="radialGradient-1">
            <stop stop-color="#C32AFF" offset="0%"></stop>
            <stop stop-color="#9013FE" offset="100%"></stop>
        </radialGradient>
    </defs>
    <g id="Icons" stroke="none" stroke-width="1" fill="none" fill-rule="evenodd">
        <g transform="translate(-502.000000, -223.000000)" id="Gradient-BG-Copy-2">
            <g transform="translate(502.000000, 54.000000)">
                <g id="Icon-v1.2" transform="translate(0.000000, 169.000000)">
                    <rect id="Rectangle-5" fill="url(#radialGradient-1)" x="0" y="0" width="128" height="128" rx="15"></rect>
                    <g id="[" transform="translate(25.000000, 23.000000)" fill="#FFFFFF">
                        <path d="M25,3 L25,3 C25,4.65685425 23.6568542,6 22,6 L0,6 L0,2 C-1.3527075e-16,0.8954305 0.8954305,2.02906125e-16 2,0 L22,0 C23.6568542,-3.04359188e-16 25,1.34314575 25,3 Z" id="Path-2"></path>
                        <path d="M25,75 L25,75 C25,76.6568542 23.6568542,78 22,78 L0,78 L0,74 C-1.3527075e-16,72.8954305 0.8954305,72 2,72 L22,72 C23.6568542,72 25,73.3431458 25,75 Z" id="Path-2-Copy" transform="translate(12.500000, 75.000000) scale(1, -1) translate(-12.500000, -75.000000) "></path>
                        <polygon id="Path-3" points="0 4 6 4 6 74 0 74"></polygon>
                    </g>
                    <g id="]" transform="translate(90.500000, 62.000000) scale(-1, 1) translate(-90.500000, -62.000000) translate(78.000000, 23.000000)" fill="#FFFFFF">
                        <path d="M25,3 L25,3 C25,4.65685425 23.6568542,6 22,6 L0,6 L0,2 C-1.3527075e-16,0.8954305 0.8954305,2.02906125e-16 2,0 L22,0 C23.6568542,-3.04359188e-16 25,1.34314575 25,3 Z" id="Path-2"></path>
                        <polygon id="Path-3-Copy" points="0 5 6 5 6 75 0 75"></polygon>
                        <path d="M25,75 L25,75 C25,76.6568542 23.6568542,78 22,78 L0,78 L0,74 C-1.3527075e-16,72.8954305 0.8954305,72 2,72 L22,72 C23.6568542,72 25,73.3431458 25,75 Z" id="Path-2-Copy" transform="translate(12.500000, 75.000000) scale(1, -1) translate(-12.500000, -75.000000) "></path>
                    </g>
                    <path d="M77.0936558,62.2537764 C77.1379663,63.09567 77.1379663,63.9375626 77.0936558,64.7794562 L79.1540788,65.9758308 C79.4642503,66.1530719 79.6968787,66.4189329 79.851964,66.7734139 C80.0070492,67.127895 80.0402819,67.4602213 79.9516619,67.7703928 C79.1540788,70.6062441 77.7139978,73.0654587 75.6314201,75.1480364 C75.4098696,75.4138974 75.1218528,75.5689827 74.7673718,75.6132932 C74.4128907,75.6576037 74.0584087,75.5911385 73.7039276,75.4138974 L71.6435046,74.2175228 C70.9345416,74.7049344 70.2034237,75.1258817 69.4501511,75.4803627 L69.4501511,77.873112 C69.4501511,78.2719035 69.3393754,78.6153077 69.1178248,78.9033235 C68.8962743,79.1913393 68.6082575,79.3796582 68.2537765,79.4682782 C65.4179252,80.2215508 62.5820748,80.2215508 59.7462235,79.4682782 C59.3917425,79.3796582 59.1037257,79.1913393 58.8821752,78.9033235 C58.6606246,78.6153077 58.5498489,78.2719035 58.5498489,77.873112 L58.5498489,75.4803627 C57.7965763,75.1258817 57.0654584,74.7049344 56.3564954,74.2175228 L54.2960724,75.4138974 C53.9415913,75.5911385 53.5871093,75.6576037 53.2326282,75.6132932 C52.8781472,75.5689827 52.5901304,75.4138974 52.3685799,75.1480364 C50.2860022,73.0654587 48.8459212,70.6062441 48.0483381,67.7703928 C47.9597181,67.4602213 47.9929508,67.127895 48.148036,66.7734139 C48.3031213,66.4189329 48.5357497,66.1530719 48.8459212,65.9758308 L50.9063442,64.7794562 C50.8620337,63.9375626 50.8620337,63.09567 50.9063442,62.2537764 L48.8459212,61.0574018 C48.5357497,60.8801607 48.3031213,60.6142997 48.148036,60.2598187 C47.9929508,59.9053376 47.9597181,59.5730113 48.0483381,59.2628398 C48.8459212,56.4269885 50.2860022,53.9677739 52.3685799,51.8851962 C52.5901304,51.6193352 52.8781472,51.4642499 53.2326282,51.4199394 C53.5871093,51.3756289 53.9415913,51.4420941 54.2960724,51.6193352 L56.3564954,52.8157098 C57.0654584,52.3282982 57.7965763,51.9073509 58.5498489,51.5528699 L58.5498489,49.1601206 C58.5498489,48.7613291 58.6606246,48.4179249 58.8821752,48.1299091 C59.1037257,47.8418933 59.3917425,47.6535744 59.7462235,47.5649544 C62.5820748,46.8116819 65.4179252,46.8116819 68.2537765,47.5649544 C68.6082575,47.6535744 68.8962743,47.8418933 69.1178248,48.1299091 C69.3393754,48.4179249 69.4501511,48.7613291 69.4501511,49.1601206 L69.4501511,51.5528699 C70.2034237,51.9073509 70.9345416,52.3282982 71.6435046,52.8157098 L73.7039276,51.6193352 C74.0584087,51.4420941 74.4128907,51.3756289 74.7673718,51.4199394 C75.1218528,51.4642499 75.4098696,51.6193352 75.6314201,51.8851962 C77.7139978,53.9677739 79.1540788,56.4269885 79.9516619,59.2628398 C80.0402819,59.5730113 80.0070492,59.9053376 79.851964,60.2598187 C79.6968787,60.6142997 79.4642503,60.8801607 79.1540788,61.0574018 L77.0936558,62.2537764 Z M73.5709971,66.4410876 C73.8368582,65.067472 73.9697887,64.0926489 73.9697887,63.5166163 C73.9697887,62.9405837 73.8368582,61.9657606 73.5709971,60.592145 L76.4954685,58.9305135 C75.9637464,57.5125884 75.2104738,56.2054379 74.2356497,55.0090633 L71.3111784,56.6706948 C70.2477342,55.7844917 69.461229,55.1973812 68.9516617,54.9093654 C68.4420944,54.6213496 67.5448134,54.233635 66.2598188,53.7462234 L66.2598188,50.4229605 C64.7532726,50.1570995 63.2467274,50.1570995 61.7401812,50.4229605 L61.7401812,53.7462234 C60.4551866,54.233635 59.5579056,54.6213496 59.0483383,54.9093654 C58.538771,55.1973812 57.7522658,55.7844917 56.6888216,56.6706948 L53.7643503,55.0090633 C52.7895262,56.2054379 52.0362536,57.5125884 51.5045315,58.9305135 L54.4290029,60.592145 C54.1631418,61.9657606 54.0302113,62.9405837 54.0302113,63.5166163 C54.0302113,64.0926489 54.1631418,65.067472 54.4290029,66.4410876 L51.5045315,68.1027191 C52.0362536,69.5206443 52.7895262,70.8277947 53.7643503,72.0241693 L56.6888216,70.3625379 C57.7522658,71.248741 58.538771,71.8358514 59.0483383,72.1238672 C59.5579056,72.411883 60.4551866,72.7995976 61.7401812,73.2870092 L61.7401812,76.6102721 C63.2467274,76.8761331 64.7532726,76.8761331 66.2598188,76.6102721 L66.2598188,73.2870092 C67.5448134,72.7995976 68.4420944,72.411883 68.9516617,72.1238672 C69.461229,71.8358514 70.2477342,71.248741 71.3111784,70.3625379 L74.2356497,72.0241693 C75.2104738,70.8277947 75.9637464,69.5206443 76.4954685,68.1027191 L73.5709971,66.4410876 Z M64,57.1359516 C65.7724072,57.1359516 67.2789524,57.7562936 68.5196375,58.9969788 C69.7603227,60.2376639 70.3806647,61.7442091 70.3806647,63.5166163 C70.3806647,65.2890235 69.7603227,66.7955687 68.5196375,68.0362538 C67.2789524,69.276939 65.7724072,69.897281 64,69.897281 C62.2275928,69.897281 60.7210476,69.276939 59.4803625,68.0362538 C58.2396773,66.7955687 57.6193353,65.2890235 57.6193353,63.5166163 C57.6193353,61.7442091 58.2396773,60.2376639 59.4803625,58.9969788 C60.7210476,57.7562936 62.2275928,57.1359516 64,57.1359516 Z M64,66.7069487 C64.8862031,66.7069487 65.6394767,66.3967771 66.2598188,65.7764351 C66.8801608,65.156093 67.1903324,64.4028194 67.1903324,63.5166163 C67.1903324,62.6304132 66.8801608,61.8771396 66.2598188,61.2567975 C65.6394767,60.6364555 64.8862031,60.3262839 64,60.3262839 C63.1137969,60.3262839 62.3605233,60.6364555 61.7401812,61.2567975 C61.1198392,61.8771396 60.8096676,62.6304132 60.8096676,63.5166163 C60.8096676,64.4028194 61.1198392,65.156093 61.7401812,65.7764351 C62.3605233,66.3967771 63.1137969,66.7069487 64,66.7069487 Z" id="" fill="#FFFFFF"></path>
                </g>
            </g>
        </g>
    </g>
</svg>